# AST/ASF file generated using VICON BodyLanguage
# -----------------------------------------------
:version 1.10
:name VICON
:units
  mass 1.0
  length 0.45
  angle deg
:documentation
   .ast/.asf automatically generated from VICON data using
   VICON BodyBuilder and BodyLanguage model FoxedUp or BRILLIANT.MOD
:root
   order TX TY TZ RX RY RZ
   axis XYZ
   position 0 0 0  
   orientation 0 0 0 
:bonedata
  begin
     id 1 
     name lhipjoint
     direction 0.643272 -0.706573 0.294883 
     length 2.58915 
     axis 0 0 0  XYZ
  end
  begin
     id 2 
     name lfemur
     direction 0.34202 -0.939693 0  
     length 7.06802  
     axis 0 0 20  XYZ
    dof rx ry rz
    limits (-160.0 20.0)
           (-70.0 70.0)
           (-60.0 70.0)
  end
  begin
     id 3 
     name ltibia
     direction 0.34202 -0.939693 0   
     length 7.94147   
     axis 0 0 20   XYZ
    dof rx
    limits (-10.0 170.0)
  end
  begin
     id 4 
     name lfoot
     direction 0.0435058 -0.119531 0.991877   
     length 1.8399   
     axis -90 7.62852e-016 20   XYZ
    dof rx rz
    limits (-45.0 90.0)
           (-70.0 20.0)
  end
  begin
     id 5 
     name ltoes
     direction 1.53505e-011 -4.22157e-011 1   
     length 0.934412   
     axis -90 7.62852e-016 20   XYZ
    dof rx
    limits (-90.0 20.0)
  end
  begin
     id 6 
     name rhipjoint
     direction -0.636801 -0.711547 0.296959   
     length 2.57105  
     axis 0 0 0  XYZ 
  end
  begin
     id 7 
     name rfemur
     direction -0.34202 -0.939693 0   
     length 7.03285   
     axis 0 0 -20   XYZ
    dof rx ry rz
    limits (-160.0 20.0)
           (-70.0 70.0)
           (-70.0 60.0)
  end
  begin
     id 8 
     name rtibia
     direction -0.34202 -0.939693 0   
     length 7.99111   
     axis 0 0 -20   XYZ
    dof rx
    limits (-10.0 170.0)
 end
 begin
     id 9 
     name rfoot
     direction -0.0783088 -0.215152 0.973436   
     length 1.98785  
     axis -90 -7.62852e-016 -20   XYZ
    dof rx rz
    limits (-45.0 90.0)
           (-20.0 70.0)
  end
  begin
     id 10 
     name rtoes
     direction -1.53606e-011 -4.21943e-011 1   
     length 1.001   
     axis -90 -7.62852e-016 -20   XYZ
    dof rx
    limits (-90.0 20.0)
  end
  begin
     id 11 
     name lowerback
     direction 0.00141527 0.998403 -0.0564763   
     length 2.30486   
     axis 0 0 0   XYZ
    dof rx ry rz
    limits (-20.0 45.0)
           (-30.0 30.0)
           (-30.0 30.0)
  end
  begin
     id 12 
     name upperback
     direction 0.0125137 0.999915 0.00361315   
     length 2.30697   
     axis 0 0 0   XYZ
    dof rx ry rz
    limits (-20.0 45.0)
           (-30.0 30.0)
           (-30.0 30.0)
  end
  begin
     id 13 
     name thorax
     direction 0.0136417 0.999471 0.0295116   
     length 2.31005   
     axis 0 0 0   XYZ
    dof rx ry rz
    limits (-20.0 45.0)
           (-30.0 30.0)
           (-30.0 30.0)
  end
  begin
     id 14 
     name lowerneck
     direction 0.0766806 0.997047 0.00422047   
     length 1.68825   
     axis 0 0 0   XYZ
    dof rx ry rz
    limits (-20.0 45.0)
           (-30.0 30.0)
           (-30.0 30.0)
  end
  begin
     id 15 
     name upperneck
     direction -0.143512 0.985106 -0.0947088   
     length 1.69772   
     axis 0 0 0   XYZ
    dof rx ry rz
    limits (-20.0 45.0)
           (-30.0 30.0)
           (-30.0 30.0)
  end
  begin
     id 16
     name head
     direction -0.0539128 0.997849 -0.0372864  
     length 1.71187  
     axis 0 0 0   XYZ
    dof rx ry rz
    limits (-20.0 45.0)
           (-30.0 30.0)
           (-30.0 30.0)
  end
  begin
     id 17 
     name lclavicle
     direction 0.978251 0.207416 -0.00165765  
     length 3.35399  
     axis 0 0 0   XYZ
    dof ry rz
    limits (-20.0 10.0)
           (0.0 20.0)
  end
  begin
     id 18 
     name lhumerus
     direction 1 -4.48966e-011 -1.32191e-028   
     length 5.70706   
     axis 180 -30 -90   XYZ
    dof rx ry rz
    limits (-60.0 90.0)
           (-90.0 90.0)
           (-90.0 90.0)
  end
  begin
     id 19
     name lradius
     direction 1 -4.48976e-011 9.36106e-027   
     length 3.33243   
     axis 180 -30 -90   XYZ
    dof rx
    limits (-10.0 170.0)
  end
  begin
     id 20
     name lwrist
     direction 1 -4.48976e-011 1.1555e-026   
     length 1.66621   
     axis -5.7412e-015 90 90   XYZ
    dof ry
    limits (-180.0 0.0)
 end
  begin
     id 21 
     name lhand
     direction 1 -4.48939e-011 2.31113e-026   
     length 0.792687   
     axis -1.47463e-014 90 90   XYZ
    dof rx rz
    limits (-90.0 90.0)
           (-45.0 45.0)
  end
  begin
     id 22 
     name lfingers
     direction 1 -4.48866e-011 4.62274e-026   
     length 0.639085   
     axis -2.94925e-014 90 90   XYZ
    dof rx
    limits (0.0 90.0)
  end
  begin
     id 23
     name lthumb
     direction 0.707107 -6.34847e-011 0.707107   
     length 0.917601   
     axis -90 45 -6.68868e-015   XYZ
    dof rx rz
    limits (-45.0 45.0)
           (-45.0 45.0)
  end
  begin
     id 24 
     name rclavicle
     direction -0.981813 0.185514 0.0403428   
     length 3.47271  
     axis 0 0 0   XYZ 
    dof ry rz
    limits (-10.0 20.0)
           (-20.0 0.0)
  end
  begin
     id 25 
     name rhumerus
     direction -1 -4.48972e-011 -6.58544e-029  
     length 5.88176   
     axis 180 30 90   XYZ
    dof rx ry rz
    limits (-90.0 60.0)
           (-90.0 90.0)
           (-90.0 90.0)
  end
  begin
     id 26 
     name rradius
     direction -1 -4.48964e-011 8.36306e-027   
     length 3.28156   
     axis 180 30 90   XYZ
    dof rx
    limits (-10.0 170.0)
  end
  begin
     id 27 
     name rwrist
     direction -1 -4.48903e-011 1.15562e-026   
     length 1.64078   
     axis -5.7412e-015 -90 -90   XYZ
    dof ry
    limits (-180.0 0.0)
  end
  begin
     id 28
     name rhand
     direction -1 -4.49055e-011 2.31074e-026   
     length 0.863125   
     axis -1.47463e-014 -90 -90   XYZ
    dof rx rz
    limits (-90.0 90.0)
           (-45.0 45.0)
  end
  begin
     id 29
     name rfingers
     direction -1 -4.48994e-011 4.62188e-026   
     length 0.695873   
     axis -2.94925e-014 -90 -90   XYZ
    dof rx
    limits (0.0 90.0)
  end
  begin
     id 30
     name rthumb
     direction -0.707107 -6.35058e-011 0.707107   
     length 0.999139   
     axis -90 -45 6.68868e-015   XYZ
    dof rx rz
    limits (-45.0 45.0)
           (-45.0 45.0)
  end
:hierarchy
  begin
    root lhipjoint rhipjoint lowerback
    lhipjoint lfemur
    lfemur ltibia
    ltibia lfoot
    lfoot ltoes
    rhipjoint rfemur
    rfemur rtibia
    rtibia rfoot
    rfoot rtoes
    lowerback upperback
    upperback thorax
    thorax lowerneck lclavicle rclavicle
    lowerneck upperneck
    upperneck head
    lclavicle lhumerus
    lhumerus lradius
    lradius lwrist
    lwrist lhand lthumb
    lhand lfingers
    rclavicle rhumerus
    rhumerus rradius
    rradius rwrist
    rwrist rhand rthumb
    rhand rfingers
  end

#!OML:ASF \\Waltz\H\Terrain\Patient Classification 1\Animal2\Wednesday\Animal2.ASF
:FULLY-SPECIFIED
:DEGREES
409
root 2.03041 17.4332 -17.6711 1.08862 -4.89095 -4.68752
lowerback 5.69181 -2.14998 3.49511
upperback -2.56777 -2.48891 1.85911
thorax -5.9382 -1.32473 0.246804
lowerneck 9.21005 7.36153 17.1624
upperneck -10.484 10.2218 -20.8858
head -2.48053 5.63178 -9.78539
rclavicle 2.78423e-014 -1.39149e-015
rhumerus 13.5906 36.8101 -61.3758
rradius 91.563
rwrist -18.5457
rhand -17.5157 11.3488
rfingers 7.12502
rthumb 8.73769 -18.4503
lclavicle 2.78423e-014 -1.39149e-015
lhumerus 23.1245 15.8789 20.9247
lradius 76.9211
lwrist 6.23493
lhand -50.4947 20.621
lfingers 7.12502
lthumb -23.0638 49.2608
rfemur -17.2595 -1.95768 27.5406
rtibia 44.5041
rfoot -20.8252 1.70858
rtoes 13.9242
lfemur -15.9313 -1.28674 -14.9215
ltibia 38.4567
lfoot -22.4315 0.933558
ltoes -29.4204
410
root 2.05192 17.4451 -17.6645 0.980482 -4.8749 -4.22394
lowerback 5.78706 -2.42618 3.44742
upperback -2.69363 -2.86063 1.72686
thorax -6.13921 -1.51135 0.186319
lowerneck 10.4969 7.56505 16.5919
upperneck -11.3658 10.5034 -20.8294
head -2.93541 5.84859 -9.78901
rclavicle 1.73067e-014 -3.21037e-014
rhumerus 14.1734 37.693 -61.0163
rradius 91.4906
rwrist -18.7478
rhand -16.5164 11.6484
rfingers 7.12502
rthumb 9.70194 -18.1081
lclavicle 1.73067e-014 -3.21037e-014
lhumerus 22.4896 16.1432 20.8636
lradius 77.1621
lwrist 7.05093
lhand -50.4201 21.0674
lfingers 7.12502
lthumb -22.9923 49.7161
rfemur -17.7066 -2.06331 27.0062
rtibia 45.2599
rfoot -21.3071 1.01536
rtoes 12.7338
lfemur -15.6674 -1.10002 -15.5095
ltibia 38.049
lfoot -22.1901 0.499408
ltoes -28.6632
411
root 2.07351 17.4558 -17.6543 0.931591 -4.88314 -3.94073
lowerback 5.70735 -2.56106 3.68385
upperback -2.65125 -3.03876 1.50412
thorax -6.07928 -1.61239 -0.161663
lowerneck 11.0078 7.69431 16.4673
upperneck -11.82 10.6771 -20.8712
head -3.12414 5.96553 -9.83583
rclavicle -2.44008e-014 -1.38155e-014
rhumerus 14.6601 38.0444 -60.6653
rradius 91.5051
rwrist -18.8965
rhand -15.7468 11.65
rfingers 7.12502
rthumb 10.4444 -18.0706
lclavicle -2.44008e-014 -1.38155e-014
lhumerus 22.6408 16.6142 21.2261
lradius 77.2519
lwrist 7.68604
lhand -49.7139 20.8688
lfingers 7.12502
lthumb -22.3145 49.6003
rfemur -18.122 -2.10781 26.6567
rtibia 45.8901
rfoot -21.6889 0.447429
rtoes 13.1857
lfemur -15.4565 -0.844383 -15.8911
ltibia 37.6784
lfoot -22.0185 -0.239068
ltoes -26.7651
412
root 2.09381 17.4586 -17.6482 0.925855 -4.94855 -3.68464
lowerback 5.60866 -2.36524 3.96652
upperback -2.31088 -2.79003 1.10594
thorax -5.69036 -1.50075 -0.776521
lowerneck 9.5778 7.7316 17.0346
upperneck -11.3069 10.661 -21.0585
head -2.68534 5.88284 -9.8707
rclavicle -2.98037e-014 -8.07563e-015
rhumerus 15.0314 37.1002 -60.1934
rradius 91.5063
rwrist -18.4393
rhand -14.9106 11.8734
rfingers 7.12502
rthumb 11.251 -17.8049
lclavicle -2.98037e-014 -8.07563e-015
lhumerus 24.0925 17.2792 22.1554
lradius 77.1742
lwrist 8.18
lhand -49.3194 20.5452
lfingers 7.12502
lthumb -21.9357 49.3216
rfemur -18.5613 -2.12676 26.361
rtibia 46.4262
rfoot -21.824 -0.117786
rtoes 14.6466
lfemur -15.3008 -0.678574 -16.2497
ltibia 37.3423
lfoot -22.0162 -0.512051
ltoes -26.4748
413
root 2.11396 17.4632 -17.6438 0.871053 -5.03471 -3.47827
lowerback 5.66742 -2.53877 4.3198
upperback -2.36164 -2.99784 0.938501
thorax -5.81668 -1.62171 -1.11935
lowerneck 9.96882 7.87502 16.7275
upperneck -11.4175 10.8504 -21.0999
head -2.76211 6.00903 -9.85871
rclavicle -1.94529e-014 -4.19933e-015
rhumerus 15.407 37.5 -59.9197
rradius 91.451
rwrist -17.7276
rhand -14.0729 12.5487
rfingers 7.12502
rthumb 12.0588 -17.0838
lclavicle -1.94529e-014 -4.19933e-015
lhumerus 23.8538 17.624 22.2152
lradius 77.2913
lwrist 8.92495
lhand -49.76 21.0843
lfingers 7.12502
lthumb -22.3587 49.8105
rfemur -18.9402 -2.16671 26.1137
rtibia 46.891
rfoot -21.9183 -0.748824
rtoes 14.5492
lfemur -15.0702 -0.482479 -16.5588
ltibia 37.0012
lfoot -21.8834 -0.447572
ltoes -27.0783
414
root 2.1347 17.4754 -17.6373 0.69307 -5.06804 -3.14813
lowerback 5.97487 -2.83784 4.4964
upperback -2.66009 -3.36343 0.830618
thorax -6.34705 -1.82206 -1.26134
lowerneck 11.4696 7.98994 16.222
upperneck -11.901 11.0756 -21.0732
head -3.14902 6.20672 -9.88871
rclavicle 6.39838e-015 1.63003e-014
rhumerus 15.6177 38.6679 -59.7378
rradius 91.5319
rwrist -17.6268
rhand -13.7257 13.2379
rfingers 7.12502
rthumb 12.3936 -16.3747
lclavicle 6.39838e-015 1.63003e-014
lhumerus 23.0116 17.6362 22.0763
lradius 77.4897
lwrist 9.81258
lhand -50.3398 21.6319
lfingers 7.12502
lthumb -22.9152 50.2902
rfemur -19.1568 -2.17412 25.6962
rtibia 47.2993
rfoot -21.9659 -1.04369
rtoes 15.3096
lfemur -14.6857 -0.17726 -16.9943
ltibia 36.6274
lfoot -21.5735 -0.714299
ltoes -26.4719
415
root 2.15095 17.4844 -17.6299 0.572206 -5.1725 -2.6677
lowerback 6.03834 -2.98502 4.50188
upperback -2.77585 -3.56775 0.584222
thorax -6.53558 -1.93286 -1.48838
lowerneck 12.5423 8.0671 15.9603
upperneck -12.4274 11.2158 -21.0647
head -3.47596 6.33403 -9.94598
rclavicle 9.45159e-015 -5.56597e-015
rhumerus 15.9089 39.3199 -59.5409
rradius 91.6642
rwrist -17.7099
rhand -13.3346 13.4894
rfingers 7.12502
rthumb 12.7707 -16.1001
lclavicle 9.45159e-015 -5.56597e-015
lhumerus 22.8154 17.8297 22.1405
lradius 77.5854
lwrist 10.6959
lhand -50.5069 21.6756
lfingers 7.12502
lthumb -23.0756 50.3139
rfemur -19.3899 -2.10557 25.1241
rtibia 47.6698
rfoot -22.0432 -1.10647
rtoes 15.9002
lfemur -14.3722 0.18735 -17.5701
ltibia 36.25
lfoot -21.2825 -1.11627
ltoes -25.5131
416
root 2.1634 17.4889 -17.6209 0.469103 -5.29739 -2.17838
lowerback 5.92007 -3.01355 4.53101
upperback -2.66172 -3.63372 0.224535
thorax -6.37735 -1.97124 -1.88187
lowerneck 12.6651 8.12025 16.0202
upperneck -12.6558 11.2769 -21.1989
head -3.53738 6.37677 -10.022
rclavicle 4.68619e-014 -4.05024e-015
rhumerus 16.2952 39.3835 -59.2779
rradius 91.6594
rwrist -17.5293
rhand -12.8655 13.9481
rfingers 7.12502
rthumb 13.2228 -15.6126
lclavicle 4.68619e-014 -4.05024e-015
lhumerus 23.2793 18.2229 22.3948
lradius 77.5562
lwrist 11.5076
lhand -50.3683 21.5523
lfingers 7.12502
lthumb -22.9426 50.2072
rfemur -19.6467 -2.10572 24.5586
rtibia 48.0042
rfoot -22.1736 -1.13997
rtoes 15.8945
lfemur -14.085 0.453933 -18.1462
ltibia 35.8782
lfoot -21.0247 -1.20047
ltoes -26.2884
417
root 2.17656 17.4908 -17.6108 0.392909 -5.37189 -1.73101
lowerback 5.81006 -3.04066 4.62868
upperback -2.55813 -3.68875 -0.102642
thorax -6.23812 -2.00627 -2.28008
lowerneck 12.4063 8.18288 16.2194
upperneck -12.469 11.3552 -21.5243
head -3.38605 6.41841 -10.1329
rclavicle -8.75934e-015 9.38326e-015
rhumerus 16.7462 39.558 -58.8597
rradius 91.6214
rwrist -17.508
rhand -12.493 14.5887
rfingers 7.12502
rthumb 13.5819 -14.9483
lclavicle -8.75934e-015 9.38326e-015
lhumerus 23.7764 18.6597 22.8077
lradius 77.544
lwrist 12.0969
lhand -49.6991 21.3803
lfingers 7.12502
lthumb -22.3003 50.1135
rfemur -19.9784 -2.10832 24.0255
rtibia 48.3236
rfoot -22.1306 -0.89698
rtoes 17.1023
lfemur -13.8673 0.681501 -18.6797
ltibia 35.5287
lfoot -20.7077 -1.04666
ltoes -28.7606
418
root 2.1888 17.4932 -17.6014 0.291091 -5.49028 -1.23789
lowerback 5.74201 -2.97847 4.6799
upperback -2.36683 -3.63048 -0.491277
thorax -6.02229 -1.98147 -2.7311
lowerneck 11.6972 8.29871 16.6088
upperneck -12.0149 11.5179 -21.8088
head -3.05293 6.46976 -10.2098
rclavicle 1.90958e-014 -2.43511e-015
rhumerus 17.2326 39.3306 -58.5275
rradius 91.5468
rwrist -17.2913
rhand -11.6665 14.6194
rfingers 7.12502
rthumb 14.3784 -14.8626
lclavicle 1.90958e-014 -2.43511e-015
lhumerus 24.5918 19.1618 23.3707
lradius 77.533
lwrist 12.3926
lhand -48.9118 21.45
lfingers 7.12502
lthumb -21.5443 50.2717
rfemur -20.2489 -1.97314 23.4239
rtibia 48.5951
rfoot -22.0089 -0.372274
rtoes 17.9431
lfemur -13.6325 0.920572 -19.2614
ltibia 35.229
lfoot -20.4118 -1.12827
ltoes -29.5033
419
root 2.20161 17.4975 -17.5945 0.113044 -5.67478 -0.608466
lowerback 5.85233 -2.79315 4.48747
upperback -2.03957 -3.42165 -0.928399
thorax -5.73708 -1.86931 -3.10956
lowerneck 10.3347 8.53052 17.0364
upperneck -11.4606 11.7869 -21.8476
head -2.57238 6.52521 -10.1521
rclavicle -6.49777e-015 -1.09332e-015
rhumerus 17.6753 38.5905 -58.1515
rradius 91.5584
rwrist -16.9754
rhand -10.7743 14.2859
rfingers 7.12502
rthumb 15.2379 -15.1328
lclavicle -6.49777e-015 -1.09332e-015
lhumerus 25.7258 19.6517 24.0834
lradius 77.5132
lwrist 12.4955
lhand -49.1289 21.5548
lfingers 7.12502
lthumb -21.7528 50.3525
rfemur -20.4151 -1.87882 22.6697
rtibia 48.7832
rfoot -21.654 0.318489
rtoes 17.8231
lfemur -13.3339 1.21394 -19.9961
ltibia 34.985
lfoot -20.1986 -1.26976
ltoes -28.5804
420
root 2.2133 17.502 -17.5901 0.0412698 -5.94698 -0.122996
lowerback 5.86484 -2.99108 4.44724
upperback -2.27319 -3.69283 -1.04065
thorax -6.02136 -2.01411 -3.16466
lowerneck 11.8722 8.76979 16.1804
upperneck -12.3039 12.1046 -21.5744
head -3.09378 6.77185 -10.0689
rclavicle 1.46138e-014 5.91384e-015
rhumerus 17.9033 39.6987 -57.9367
rradius 91.7251
rwrist -17.151
rhand -10.4036 13.9302
rfingers 7.12502
rthumb 15.595 -15.4611
lclavicle 1.46138e-014 5.91384e-015
lhumerus 24.7708 19.7056 23.779
lradius 77.6671
lwrist 12.7342
lhand -49.7448 21.3001
lfingers 7.12502
lthumb -22.3441 50.0281
rfemur -20.6857 -1.61524 22.1216
rtibia 48.8958
rfoot -20.867 0.71506
rtoes 17.6077
lfemur -13.1868 1.66473 -20.5587
ltibia 34.8008
lfoot -20.0135 -1.50563
ltoes -27.5285
